# xmcd
#
# Track frame offsets:
#	150
#	9980
#	15853
#	24179
#	36189
#	49283
#	53004
#	64012
#	72237
#	80819
#	89220
#	98831
#	105347
#	112304
#	119657
#	127758
#	137482
#	144431
#	150723
#	160752
#	169520
#	175730
#	188146
#	195373
#	205622
#	212687
#
# Disc length: 3037 seconds
#
# Revision: 1
# Processed by: cddbd v1.5.1PL0 Copyright (c) Steve Scherf et al.
# Submitted via: audiograbber 1.82.02
#
DISCID=550bdb1a
DTITLE=Various Artist - 15th Annual Fidler's Jamboree
DYEAR=2002
DGENRE=Country Fiddling
TTITLE0=Irv Hubick
TTITLE1=Kaitlyn, Jordan and Hudson
TTITLE2=Harold Esau
TTITLE3=Hector Geunette
TTITLE4=Lenore Tochor
TTITLE5=John Vavrek
TTITLE6=Orist Melnyk and Kelcey Marie
TTITLE7=Kelcey Marie Fleming
TTITLE8=Arvid Olderskog and Jean Cameron
TTITLE9=Dorothy Muir
TTITLE10=Ed and Alice Wald
TTITLE11=Oliver Tardiff
TTITLE12=Jim Porterfield
TTITLE13=Lester Webb
TTITLE14=Gilbert Ulland
TTITLE15=John Roy
TTITLE16=The Backup Band
TTITLE17=Emile Arabsky
TTITLE18=Sterling Cuthbert
TTITLE19=Maurice Tenborg and Sterling Cuthbert
TTITLE20=Maurice Tenborg
TTITLE21=Harold Nordhagen
TTITLE22=Carl Delorme
TTITLE23=May Head
TTITLE24=Clifford Scott and Stewart Covert
TTITLE25=Finale Tunes
EXTD=Grande Prairie Regional College Theatre\nApril 7th 2002
EXTT0=
EXTT1=
EXTT2=
EXTT3=
EXTT4=
EXTT5=
EXTT6=
EXTT7=
EXTT8=
EXTT9=
EXTT10=
EXTT11=
EXTT12=
EXTT13=
EXTT14=
EXTT15=
EXTT16=
EXTT17=
EXTT18=
EXTT19=
EXTT20=
EXTT21=
EXTT22=
EXTT23=
EXTT24=
EXTT25=
PLAYORDER=
